<svg width="120" height="45" viewBox="0 0 120 45" fill="none" xmlns="http://www.w3.org/2000/svg">
<path d="M59.0389 25.6639C51.8213 25.6639 45.9492 19.9071 45.9492 12.8319C45.9492 5.75679 51.8213 0 59.0389 0C66.2559 0 72.128 5.75679 72.128 12.8319C72.128 19.9071 66.2559 25.6639 59.0389 25.6639ZM59.0389 0.717607C52.2249 0.717607 46.6812 6.15177 46.6812 12.8319C46.6812 19.5121 52.2249 24.9456 59.0389 24.9456C65.853 24.9456 71.396 19.5121 71.396 12.8319C71.396 6.15177 65.8523 0.717607 59.0389 0.717607Z" fill="#1D1D1B"/>
<path d="M61.959 25.3048C61.959 26.8873 60.6501 28.1705 59.0365 28.1705C57.4215 28.1705 56.1133 26.8873 56.1133 25.3048C56.1133 23.7215 57.4222 22.439 59.0365 22.439C60.6508 22.439 61.959 23.7215 61.959 25.3048Z" fill="#D01317"/>
<path d="M11.7959 44.1228C11.9928 44.4089 12.1005 44.578 12.459 44.578V45H7.51147V44.5787C7.85198 44.5787 8.17455 44.2743 8.06749 43.9538L5.05461 39.4484L3.76437 40.9335V43.9024C3.76437 44.2412 4.12284 44.578 4.48132 44.578V45H0V44.5787C0.358478 44.5787 0.716266 44.2412 0.716266 43.9031V32.5956C0.716266 32.2588 0.358478 31.9207 0 31.9207V31.5H4.48132V31.9207C4.12284 31.9207 3.76437 32.2595 3.76437 32.5956V39.7689L10.0029 32.5449C10.2543 32.2243 9.8951 31.9207 9.55527 31.9207V31.5H11.903V31.9207C11.5452 31.9207 11.4368 32.0898 11.186 32.3772L7.08115 37.1017L11.7959 44.1228Z" fill="#1D1D1B"/>
<path d="M31.3968 43.9018C31.5255 44.1892 31.7636 44.5774 32.1304 44.5774V44.9994H28.3885L26.903 41.4896L26.7193 41.0507C26.573 40.7133 26.3157 40.3758 25.949 40.3758H22.5752C22.2445 40.3758 21.988 40.6625 21.841 40.9668L21.694 41.3036L21.6205 41.4896L20.1166 45H19.0156V44.578C19.3831 44.578 19.6213 44.2074 19.7499 43.9025L24.9766 31.5H26.1136L31.3968 43.9018ZM25.949 39.9538C26.2055 39.9538 26.1871 39.7841 26.0967 39.5995L26.0776 39.5319L26.0048 39.3628L25.8203 38.9239L24.2805 35.2789L22.9045 38.485L22.5378 39.3635C22.4282 39.6333 22.2261 39.9538 22.5929 39.9538H25.949Z" fill="#1D1D1B"/>
<path d="M49.835 45H47.4314H46.2474H38.6875V44.5781C39.0524 44.5781 39.416 44.24 39.416 43.9026V32.5968C39.416 32.2587 39.0524 31.9219 38.6875 31.9219V31.5H43.2415V31.9219C42.8773 31.9219 42.5131 32.2594 42.5131 32.5968V43.9026C42.5131 44.2406 42.8773 44.5781 43.2415 44.5781H46.2474C48.2146 44.5781 48.9788 43.2271 48.9788 41.945H49.835V45Z" fill="#1D1D1B"/>
<path d="M60.3557 43.9037C60.3557 44.2418 60.6711 44.5793 60.9852 44.5793V45H57.0508V44.5793C57.3655 44.5793 57.6802 44.2411 57.6802 43.9037V32.5957C57.6802 32.2588 57.3649 31.9207 57.0508 31.9207V31.5H60.9852V31.9207C60.6705 31.9207 60.3557 32.2595 60.3557 32.5957V43.9037Z" fill="#1D1D1B"/>
<path d="M80.6543 31.922C80.3062 31.922 79.9594 32.2601 79.9594 32.5969V45H78.2039L69.7238 33.4915V43.9038C69.7238 44.2412 70.072 44.5793 70.4188 44.5793V45H68.1953V44.5787C68.5435 44.5787 68.8896 44.2399 68.8896 43.9031V32.3602C68.6995 32.0728 68.5428 31.9213 68.2127 31.9213V31.5H71.7571L79.1252 41.4902V32.5969C79.1252 32.2594 78.777 31.922 78.4302 31.922V31.5006H80.6543V31.922Z" fill="#1D1D1B"/>
<path d="M99.6631 44.1228C99.86 44.4089 99.9677 44.578 100.326 44.578V45H95.3784V44.5787C95.7189 44.5787 96.0415 44.2743 95.9344 43.9538L92.9221 39.4484L91.6325 40.9335V43.9024C91.6325 44.2412 91.9903 44.578 92.3495 44.578V45H87.8672V44.5787C88.2264 44.5787 88.5842 44.2412 88.5842 43.9031V32.5956C88.5842 32.2588 88.2257 31.9207 87.8672 31.9207V31.5H92.3495V31.9207C91.9896 31.9207 91.6325 32.2595 91.6325 32.5956V39.7689L97.8706 32.5449C98.1213 32.2243 97.7628 31.9207 97.423 31.9207V31.5H99.7708V31.9207C99.4124 31.9207 99.3039 32.0898 99.0539 32.3772L94.9487 37.1017L99.6631 44.1228Z" fill="#1D1D1B"/>
<path d="M119.268 43.9018C119.397 44.1892 119.635 44.5774 120.001 44.5774V44.9994H116.261L114.775 41.4889L114.591 41.0501C114.444 40.7126 114.188 40.3752 113.821 40.3752H110.446C110.116 40.3752 109.859 40.6619 109.712 40.9662L109.566 41.303L109.492 41.4896L107.988 45H106.887V44.578C107.255 44.578 107.492 44.2074 107.621 43.9025L112.848 31.5H113.985L119.268 43.9018ZM113.821 39.9538C114.078 39.9538 114.06 39.7841 113.968 39.5995L113.95 39.5319L113.877 39.3628L113.694 38.9239L112.152 35.2789L110.777 38.485L110.41 39.3635C110.3 39.6333 110.098 39.9538 110.465 39.9538H113.821Z" fill="#1D1D1B"/>
</svg>
